<svg width="52" height="52" viewBox="0 0 52 52" fill="none" xmlns="http://www.w3.org/2000/svg">
<g filter="url(#filter0_d_554_515)">
<rect width="41.3438" height="41.3438" transform="translate(5.48438 5.48047)" fill="#222222"/>
<g clip-path="url(#clip0_554_515)">
<path d="M15.8203 31.3101C15.8203 31.3774 15.8338 31.4447 15.8607 31.512C15.8876 31.5793 15.9212 31.6331 15.9616 31.6735C16.0693 31.7811 16.1938 31.835 16.3351 31.835C16.4764 31.835 16.6009 31.7811 16.7086 31.6735L25.6314 22.7506L34.5744 31.6735C34.6821 31.7811 34.8065 31.835 34.9479 31.835C35.0892 31.835 35.2069 31.7811 35.3011 31.6735C35.4088 31.5793 35.4626 31.4615 35.4626 31.3202C35.4626 31.1789 35.4088 31.0544 35.3011 30.9467L26.0149 21.6403C25.9073 21.5461 25.7828 21.499 25.6415 21.499C25.5002 21.499 25.3757 21.5461 25.268 21.6403L15.9616 30.9467C15.9212 31.0005 15.8876 31.0577 15.8607 31.1183C15.8338 31.1789 15.8203 31.2428 15.8203 31.3101Z" fill="white"/>
</g>
</g>
<defs>
<filter id="filter0_d_554_515" x="0.316406" y="0.3125" width="51.6797" height="51.6797" filterUnits="userSpaceOnUse" color-interpolation-filters="sRGB">
<feFlood flood-opacity="0" result="BackgroundImageFix"/>
<feColorMatrix in="SourceAlpha" type="matrix" values="0 0 0 0 0 0 0 0 0 0 0 0 0 0 0 0 0 0 127 0" result="hardAlpha"/>
<feOffset/>
<feGaussianBlur stdDeviation="2.58398"/>
<feComposite in2="hardAlpha" operator="out"/>
<feColorMatrix type="matrix" values="0 0 0 0 0 0 0 0 0 0 0 0 0 0 0 0 0 0 0.15 0"/>
<feBlend mode="normal" in2="BackgroundImageFix" result="effect1_dropShadow_554_515"/>
<feBlend mode="normal" in="SourceGraphic" in2="effect1_dropShadow_554_515" result="shape"/>
</filter>
<clipPath id="clip0_554_515">
<rect width="20.6719" height="41.3438" fill="white" transform="matrix(1 0 0 -1 15.8203 46.8242)"/>
</clipPath>
</defs>
</svg>
