<svg width="311" height="60" viewBox="0 0 311 60" fill="none" xmlns="http://www.w3.org/2000/svg">
<rect width="310.078" height="59.3179" transform="translate(0.921875)" fill="#F5F5F5"/>
<g clip-path="url(#clip0_554_525)">
<g clip-path="url(#clip1_554_525)">
<g clip-path="url(#clip2_554_525)">
<path d="M34.7351 38.7655H36.8844L29.0471 20.4434L21 38.7655H23.1494L25.2463 33.8377H32.6905L34.7351 38.7655ZM26.0065 32.0028L28.9946 25.0042L31.9304 32.0028H26.0065ZM39.3502 21.2821V38.7655H46.1129V36.9307H41.2899V21.2821H39.3502ZM50.6842 21.2821H48.7445V32.5271C48.7445 33.9949 48.9018 35.4104 49.8454 36.721C50.8939 38.1626 52.7288 39.08 54.9568 39.08C57.1848 39.08 59.0196 38.1626 60.0681 36.721C61.0117 35.4104 61.169 33.9949 61.169 32.5271V21.2821H59.2293V32.0028C59.2293 33.4707 59.2293 35.0696 57.8401 36.2492C57.1324 36.852 55.9266 37.2452 54.9568 37.2452C53.9869 37.2452 52.7812 36.852 52.0735 36.2492C50.6842 35.0696 50.6842 33.4707 50.6842 32.0028V21.2821ZM67.6298 21.2821H65.6901V38.7655H67.6298V31.2427L68.1278 30.7447L75.2837 38.7655H77.9573L69.5171 29.4341L77.6952 21.2821H75.074L67.6298 28.7788V21.2821ZM92.2785 38.7655H94.4276L86.5905 20.4434L78.5434 38.7655H80.6928L82.7898 33.8377H90.2339L92.2785 38.7655ZM83.5499 32.0028L86.5381 25.0042L89.4738 32.0028H83.5499ZM105.97 23.7199C105.576 22.9597 104.974 22.252 104.266 21.7802C103.401 21.2035 102.536 20.9938 101.461 20.9938C98.6303 20.9938 96.5595 22.8024 96.5595 25.5023C96.5595 26.8129 97.0051 27.6254 97.7653 28.3594C98.5517 29.1195 99.4166 29.4865 100.098 29.801L101.671 30.535C102.588 30.9543 103.27 31.2689 103.768 31.7407C104.397 32.3174 104.633 32.9989 104.633 33.7852C104.633 35.5414 103.506 37.2452 101.12 37.2452C100.229 37.2452 99.3642 37.0355 98.6041 36.2754C98.1061 35.7511 97.6867 34.9648 97.5556 34.0474L95.6683 34.5716C95.9042 35.6201 96.4285 36.8258 97.2935 37.6646C98.4992 38.8441 99.9409 39.08 101.094 39.08C104.24 39.08 106.625 36.9307 106.625 33.7066C106.625 32.4484 106.258 31.4262 105.367 30.535C104.633 29.801 103.689 29.3292 102.667 28.8836L100.989 28.1497C100.334 27.8613 99.6788 27.573 99.1545 27.0488C98.6827 26.6032 98.4992 26.21 98.4992 25.5285C98.4992 23.9033 99.705 22.8286 101.435 22.8286C102.431 22.8286 103.06 23.1694 103.401 23.4315C103.794 23.7461 104.187 24.2703 104.423 24.7421L105.97 23.7199ZM128.328 31.1903C127.83 31.8718 127.279 32.5009 126.336 33.4969L122.692 28.805C123.819 27.8613 123.662 28.071 124.108 27.6779C125.497 26.4721 125.733 25.3188 125.733 24.5062C125.733 22.75 124.475 20.9938 122.037 20.9938C119.52 20.9938 118.236 22.8549 118.236 24.6897C118.236 25.8692 118.787 26.9177 119.966 28.438C119.599 28.6739 117.948 29.6962 117.03 30.6136C116.454 31.1903 115.458 32.3436 115.458 34.2308C115.458 37.0093 117.659 39.08 120.517 39.08C122.509 39.08 124.632 37.8481 126.152 36.3278L128.039 38.7655H130.451L127.515 34.9648C128.59 33.8639 129.271 33.0251 129.743 32.3698L128.328 31.1903ZM124.973 34.8861C124.317 35.5152 122.351 37.2976 120.49 37.2976C118.682 37.2976 117.397 35.9346 117.397 34.2046C117.397 32.8416 118.131 32.1339 118.629 31.6883C119.127 31.2427 119.809 30.666 121.093 29.8797L124.973 34.8861ZM120.779 26.3148C120.438 25.843 120.071 25.345 120.071 24.5848C120.071 23.4839 120.936 22.6714 122.011 22.6714C122.928 22.6714 123.898 23.248 123.898 24.48C123.898 25.0829 123.714 25.712 122.718 26.4983L121.565 27.3895L120.779 26.3148ZM152.446 22.7238C150.349 21.1249 148.331 20.9938 147.283 20.9938C142.04 20.9938 138.135 24.8732 138.135 30.0894C138.135 35.1483 141.988 39.08 147.178 39.08C148.488 39.08 150.507 38.7655 152.446 37.3763V34.9648C152.132 35.2793 151.424 35.9346 150.428 36.4326C149.511 36.9045 148.357 37.2452 147.178 37.2452C143.98 37.2452 140.127 34.8599 140.127 30.1156C140.127 26.0789 143.115 22.8286 147.152 22.8286C148.174 22.8286 149.248 23.0908 150.166 23.5102C151.057 23.9295 151.896 24.5848 152.446 25.1353V22.7238ZM164.176 39.08C169.235 39.08 173.272 35.2269 173.272 30.0369C173.272 24.8208 169.209 20.9938 164.176 20.9938C159.143 20.9938 155.081 24.8208 155.081 30.0369C155.081 35.2269 159.117 39.08 164.176 39.08ZM164.176 22.8286C168.108 22.8286 171.28 26.0265 171.28 30.0369C171.28 34.0474 168.108 37.2452 164.176 37.2452C160.244 37.2452 157.073 34.0474 157.073 30.0369C157.073 26.0265 160.244 22.8286 164.176 22.8286Z" fill="#222222"/>
</g>
</g>
</g>
<g clip-path="url(#clip3_554_525)">
<path d="M285.69 29.6539L291.007 24.3366C291.112 24.2397 291.165 24.1205 291.165 23.9792C291.165 23.8379 291.116 23.7148 291.019 23.6098C290.923 23.5048 290.801 23.4523 290.656 23.4523C290.511 23.4523 290.39 23.5008 290.293 23.5977C290.285 23.5977 290.281 23.5997 290.281 23.6037C290.281 23.6078 290.281 23.6098 290.281 23.6098L284.963 28.9272L279.646 23.6098C279.541 23.5129 279.418 23.4645 279.276 23.4645C279.135 23.4645 279.012 23.5169 278.907 23.6219C278.818 23.7188 278.774 23.8379 278.774 23.9792C278.774 24.1205 278.818 24.2397 278.907 24.3366L284.224 29.6539L278.907 34.9713C278.81 35.0762 278.762 35.1994 278.762 35.3407C278.762 35.482 278.81 35.6051 278.907 35.7101C279.012 35.807 279.135 35.8555 279.276 35.8555C279.418 35.8555 279.541 35.807 279.646 35.7101L284.963 30.3928L290.281 35.7101C290.378 35.807 290.499 35.8535 290.644 35.8494C290.789 35.8454 290.91 35.7909 291.007 35.6859C291.104 35.589 291.153 35.4719 291.153 35.3346C291.153 35.1974 291.104 35.0762 291.007 34.9713L285.69 29.6539Z" fill="#222222"/>
</g>
<defs>
<clipPath id="clip0_554_525">
<rect width="152.972" height="19.6486" fill="white" transform="translate(20.7559 19.835)"/>
</clipPath>
<clipPath id="clip1_554_525">
<rect width="152.972" height="19.6486" fill="white" transform="translate(20.7559 19.835)"/>
</clipPath>
<clipPath id="clip2_554_525">
<rect width="152.903" height="19.659" fill="white" transform="translate(20.791 19.835)"/>
</clipPath>
<clipPath id="clip3_554_525">
<rect width="12.4031" height="12.4031" fill="white" transform="matrix(1 0 0 -1 278.762 35.8555)"/>
</clipPath>
</defs>
</svg>
