<svg width="24" height="40" viewBox="0 0 24 40" fill="none" xmlns="http://www.w3.org/2000/svg">
<path d="M9.47785 31.333C8.84128 31.333 8.30093 31.1109 7.85681 30.6668C7.41269 30.2227 7.19062 29.6898 7.19062 29.068C7.19062 28.4314 7.41269 27.8911 7.85681 27.4469C8.30093 27.0028 8.84128 26.7808 9.47785 26.7808C10.0996 26.7808 10.6326 27.0028 11.0767 27.4469C11.5208 27.8911 11.7429 28.4314 11.7429 29.068C11.7429 29.6898 11.5208 30.2227 11.0767 30.6668C10.6326 31.1109 10.0996 31.333 9.47785 31.333ZM9.47785 27.9355C9.15216 27.9355 8.87829 28.0465 8.65623 28.2686C8.43417 28.4906 8.32314 28.7571 8.32314 29.068C8.32314 29.3789 8.43417 29.6453 8.65623 29.8674C8.87829 30.0895 9.15216 30.2005 9.47785 30.2005C9.78874 30.2005 10.0552 30.0895 10.2773 29.8674C10.4993 29.6453 10.6104 29.3789 10.6104 29.068C10.6104 28.7571 10.4993 28.4906 10.2773 28.2686C10.0552 28.0465 9.78874 27.9355 9.47785 27.9355ZM17.4276 31.333C16.8059 31.333 16.2729 31.1109 15.8288 30.6668C15.3847 30.2227 15.1626 29.6898 15.1626 29.068C15.1626 28.4314 15.3847 27.8911 15.8288 27.4469C16.2729 27.0028 16.8059 26.7808 17.4276 26.7808C18.0494 26.7808 18.5824 27.0028 19.0265 27.4469C19.4706 27.8911 19.6927 28.4314 19.6927 29.068C19.6927 29.6898 19.4706 30.2227 19.0265 30.6668C18.5824 31.1109 18.0494 31.333 17.4276 31.333ZM17.4276 27.9355C17.1168 27.9355 16.8503 28.0465 16.6282 28.2686C16.4062 28.4906 16.2951 28.7571 16.2951 29.068C16.2951 29.3789 16.4062 29.6453 16.6282 29.8674C16.8503 30.0895 17.1168 30.2005 17.4276 30.2005C17.7385 30.2005 18.005 30.0895 18.2271 29.8674C18.4491 29.6453 18.5602 29.3789 18.5602 29.068C18.5602 28.7571 18.4491 28.4906 18.2271 28.2686C18.005 28.0465 17.7385 27.9355 17.4276 27.9355ZM20.3144 13.6791C20.1664 13.5163 19.9925 13.3868 19.7926 13.2905C19.5927 13.1943 19.3744 13.1462 19.1375 13.1462H5.21428L5.10325 12.4578C5.02923 12.0137 4.81087 11.6399 4.44817 11.3364C4.08547 11.0329 3.67466 10.8812 3.21573 10.8812H2.08322C1.92037 10.8812 1.78344 10.9367 1.67241 11.0477C1.56137 11.1588 1.50586 11.2883 1.50586 11.4363C1.50586 11.5992 1.56137 11.7361 1.67241 11.8471C1.78344 11.9582 1.92037 12.0137 2.08322 12.0137H3.21573C3.39338 12.0137 3.55622 12.0766 3.70426 12.2024C3.85231 12.3283 3.94113 12.48 3.97074 12.6577L5.88046 24.0494C5.95448 24.5083 6.17284 24.8895 6.53554 25.193C6.89824 25.4965 7.30906 25.6482 7.76798 25.6482H19.1375C19.2856 25.6482 19.4151 25.5927 19.5261 25.4817C19.6372 25.3707 19.6927 25.2411 19.6927 25.0931C19.6927 24.9302 19.6372 24.7933 19.5261 24.6823C19.4151 24.5712 19.2856 24.5157 19.1375 24.5157H7.76798C7.59033 24.5157 7.42379 24.4528 7.26835 24.327C7.1129 24.2011 7.02038 24.0494 6.99077 23.8718L6.7243 22.1841L18.0494 21.207C18.4935 21.1626 18.8932 20.9776 19.2485 20.6519C19.6038 20.3262 19.8111 19.9487 19.8703 19.5194L20.6475 14.9227C20.6771 14.7006 20.666 14.4786 20.6142 14.2565C20.5624 14.0344 20.4625 13.842 20.3144 13.6791ZM19.515 14.745L18.76 19.3195C18.7304 19.4971 18.6342 19.6637 18.4713 19.8191C18.3085 19.9746 18.1382 20.0597 17.9606 20.0745L6.52444 21.0516L5.39193 14.2787H19.1375C19.1967 14.2787 19.2559 14.2898 19.3152 14.312C19.3744 14.3342 19.4188 14.3675 19.4484 14.4119C19.478 14.4564 19.5002 14.5045 19.515 14.5563C19.5298 14.6081 19.5298 14.671 19.515 14.745Z" fill="#222222"/>
</svg>
