<svg width="8" height="13" viewBox="0 0 8 13" fill="none" xmlns="http://www.w3.org/2000/svg">
<g clip-path="url(#clip0_554_557)">
<path d="M-0.00195312 4.96839C-0.00195312 4.94486 0.00275726 4.9225 0.012178 4.90132C0.0215988 4.88015 0.0333748 4.86014 0.047506 4.84132C0.0851891 4.80838 0.12876 4.7919 0.178219 4.7919C0.227678 4.7919 0.271249 4.80838 0.308933 4.84132L3.43192 7.96858L6.56197 4.84132C6.59966 4.80838 6.64323 4.7919 6.69269 4.7919C6.74215 4.7919 6.78336 4.80838 6.81633 4.84132C6.85402 4.87897 6.87286 4.9225 6.87286 4.97192C6.87286 5.02133 6.85402 5.06486 6.81633 5.10251L3.56617 8.34978C3.52848 8.38743 3.48491 8.40625 3.43545 8.40625C3.38599 8.40625 3.34242 8.38743 3.30474 8.34978L0.047506 5.10251C0.0333748 5.08369 0.0215988 5.06251 0.012178 5.03898C0.00275726 5.01545 -0.00195312 4.99192 -0.00195312 4.96839Z" fill="#222222"/>
</g>
<defs>
<clipPath id="clip0_554_557">
<rect width="7.23516" height="11.5556" fill="white" transform="matrix(1 0 0 -1 -0.00195312 12.1963)"/>
</clipPath>
</defs>
</svg>
