<svg width="10" height="17" viewBox="0 0 10 17" fill="none" xmlns="http://www.w3.org/2000/svg">
<g clip-path="url(#clip0_554_504)">
<path d="M0.460938 6.48805C0.460938 6.45776 0.466994 6.429 0.479106 6.40174C0.491219 6.37449 0.506359 6.34875 0.524528 6.32453C0.572977 6.28213 0.628997 6.26094 0.692588 6.26094C0.756178 6.26094 0.812198 6.28213 0.860648 6.32453L4.87592 10.3489L8.90027 6.32453C8.94872 6.28213 9.00474 6.26094 9.06833 6.26094C9.13192 6.26094 9.18491 6.28213 9.22731 6.32453C9.27576 6.37298 9.29998 6.429 9.29998 6.49259C9.29998 6.55618 9.27576 6.6122 9.22731 6.66065L5.04852 10.8394C5.00007 10.8879 4.94405 10.9121 4.88046 10.9121C4.81687 10.9121 4.76085 10.8879 4.7124 10.8394L0.524528 6.66065C0.506359 6.63642 0.491219 6.60917 0.479106 6.57889C0.466994 6.54861 0.460938 6.51833 0.460938 6.48805Z" fill="#222222"/>
</g>
<defs>
<clipPath id="clip0_554_504">
<rect width="9.30234" height="16.2791" fill="white" transform="matrix(1 0 0 -1 0.460938 16.4941)"/>
</clipPath>
</defs>
</svg>
