<svg width="17" height="18" viewBox="0 0 17 18" fill="none" xmlns="http://www.w3.org/2000/svg">
<g clip-path="url(#clip0_554_541)">
<path d="M0.341797 5.80004C0.341797 5.7462 0.352563 5.69506 0.374097 5.64661C0.39563 5.59816 0.422546 5.5524 0.454846 5.50934C0.540979 5.43397 0.64057 5.39629 0.753619 5.39629C0.866669 5.39629 0.96626 5.43397 1.05239 5.50934L8.19065 12.6637L15.3451 5.50934C15.4312 5.43397 15.5308 5.39629 15.6438 5.39629C15.7569 5.39629 15.8511 5.43397 15.9265 5.50934C16.0126 5.59547 16.0557 5.69506 16.0557 5.80811C16.0557 5.92116 16.0126 6.02075 15.9265 6.10688L8.4975 13.5358C8.41136 13.622 8.31177 13.665 8.19872 13.665C8.08568 13.665 7.98608 13.622 7.89995 13.5358L0.454846 6.10688C0.422546 6.06382 0.39563 6.01537 0.374097 5.96154C0.352563 5.9077 0.341797 5.85387 0.341797 5.80004Z" fill="#777777"/>
</g>
<defs>
<clipPath id="clip0_554_541">
<rect width="16.5375" height="16.5375" fill="white" transform="matrix(1 0 0 -1 0.341797 17.3877)"/>
</clipPath>
</defs>
</svg>
