<svg width="8" height="45" viewBox="0 0 8 45" fill="none" xmlns="http://www.w3.org/2000/svg">
<g clip-path="url(#clip0_554_455)">
<path d="M0.0742188 20.855C0.0742188 20.8314 0.0789291 20.809 0.0883499 20.7878C0.0977707 20.7666 0.109547 20.7466 0.123678 20.7278C0.161361 20.6948 0.204932 20.6783 0.254391 20.6783C0.30385 20.6783 0.347421 20.6948 0.385104 20.7278L3.50809 23.8578L6.63814 20.7278C6.67583 20.6948 6.7194 20.6783 6.76886 20.6783C6.81832 20.6783 6.85953 20.6948 6.89251 20.7278C6.93019 20.7655 6.94903 20.809 6.94903 20.8585C6.94903 20.908 6.93019 20.9515 6.89251 20.9892L3.64234 24.2394C3.60465 24.2771 3.56108 24.2959 3.51162 24.2959C3.46217 24.2959 3.41859 24.2771 3.38091 24.2394L0.123678 20.9892C0.109547 20.9704 0.0977707 20.9492 0.0883499 20.9256C0.0789291 20.9021 0.0742188 20.8785 0.0742188 20.855Z" fill="white"/>
</g>
<defs>
<clipPath id="clip0_554_455">
<rect width="7.23516" height="43.4109" fill="white" transform="matrix(1 0 0 -1 0.0742188 44.0127)"/>
</clipPath>
</defs>
</svg>
