<svg width="17" height="18" viewBox="0 0 17 18" fill="none" xmlns="http://www.w3.org/2000/svg">
<g clip-path="url(#clip0_554_551)">
<path d="M0.341797 5.90648C0.341797 5.85265 0.352563 5.80151 0.374097 5.75306C0.39563 5.70461 0.422546 5.65885 0.454846 5.61578C0.540979 5.54042 0.64057 5.50273 0.753619 5.50273C0.866669 5.50273 0.96626 5.54042 1.05239 5.61578L8.19065 12.7702L15.3451 5.61578C15.4312 5.54042 15.5308 5.50273 15.6438 5.50273C15.7569 5.50273 15.8511 5.54042 15.9265 5.61578C16.0126 5.70192 16.0557 5.80151 16.0557 5.91456C16.0557 6.02761 16.0126 6.1272 15.9265 6.21333L8.4975 13.6423C8.41136 13.7284 8.31177 13.7715 8.19872 13.7715C8.08568 13.7715 7.98608 13.7284 7.89995 13.6423L0.454846 6.21333C0.422546 6.17026 0.39563 6.12181 0.374097 6.06798C0.352563 6.01415 0.341797 5.96031 0.341797 5.90648Z" fill="#777777"/>
</g>
<defs>
<clipPath id="clip0_554_551">
<rect width="16.5375" height="16.5375" fill="white" transform="matrix(1 0 0 -1 0.341797 17.4941)"/>
</clipPath>
</defs>
</svg>
