<svg width="25" height="27" viewBox="0 0 25 27" fill="none" xmlns="http://www.w3.org/2000/svg">
<g clip-path="url(#clip0_554_68)">
<path d="M24.9391 11.1502V2.96219C24.9391 2.4454 24.7533 2.00128 24.3819 1.62983C24.0104 1.25838 23.5663 1.07266 23.0495 1.07266H14.6919C14.4174 1.07266 14.1065 1.09284 13.7593 1.13322C13.4121 1.17359 13.1093 1.32298 12.8509 1.58138L0.593085 13.8392C0.447736 14.0007 0.334686 14.1743 0.253937 14.36C0.173187 14.5457 0.132812 14.7435 0.132812 14.9535C0.132812 15.1634 0.173187 15.3613 0.253937 15.547C0.334686 15.7327 0.447736 15.8983 0.593085 16.0436L9.9681 25.4186C10.1135 25.564 10.279 25.677 10.4647 25.7578C10.6504 25.8385 10.8483 25.8789 11.0582 25.8789C11.2682 25.8789 11.466 25.8385 11.6517 25.7578C11.8375 25.677 12.0111 25.564 12.1726 25.4186L24.4303 13.1609C24.6887 12.9025 24.8381 12.5956 24.8785 12.2403C24.9189 11.885 24.9391 11.5216 24.9391 11.1502ZM23.316 12.0707L11.0582 24.3285L1.6832 14.9535L13.941 2.69572C13.9894 2.66342 14.1025 2.64323 14.2801 2.63516C14.4578 2.62708 14.595 2.62305 14.6919 2.62305H15.0311H23.0495C23.1464 2.62305 23.2272 2.65535 23.2918 2.71995C23.3564 2.78455 23.3887 2.8653 23.3887 2.96219V11.1744C23.3887 11.3198 23.3846 11.4893 23.3766 11.6831C23.3685 11.8769 23.3483 12.0061 23.316 12.0707ZM18.7375 4.17344C17.8816 4.17344 17.1508 4.47625 16.5452 5.08187C15.9395 5.68749 15.6367 6.41827 15.6367 7.27422C15.6367 8.13016 15.9395 8.86095 16.5452 9.46657C17.1508 10.0722 17.8816 10.375 18.7375 10.375C19.5934 10.375 20.3242 10.0722 20.9298 9.46657C21.5355 8.86095 21.8383 8.13016 21.8383 7.27422C21.8383 6.41827 21.5355 5.68749 20.9298 5.08187C20.3242 4.47625 19.5934 4.17344 18.7375 4.17344ZM18.7375 8.82461C18.3176 8.82461 17.9542 8.67522 17.6474 8.37645C17.3405 8.07768 17.1871 7.71027 17.1871 7.27422C17.1871 6.83817 17.3405 6.47076 17.6474 6.17199C17.9542 5.87321 18.3176 5.72383 18.7375 5.72383C19.1735 5.72383 19.541 5.87321 19.8397 6.17199C20.1385 6.47076 20.2879 6.83817 20.2879 7.27422C20.2879 7.71027 20.1385 8.07768 19.8397 8.37645C19.541 8.67522 19.1735 8.82461 18.7375 8.82461Z" fill="#222222"/>
</g>
<defs>
<clipPath id="clip0_554_68">
<rect width="24.8062" height="25.8398" fill="white" transform="matrix(1 0 0 -1 0.132812 26.3955)"/>
</clipPath>
</defs>
</svg>
