<svg width="9" height="45" viewBox="0 0 9 45" fill="none" xmlns="http://www.w3.org/2000/svg">
<g clip-path="url(#clip0_554_451)">
<path d="M0.966797 20.855C0.966797 20.8314 0.971507 20.809 0.980928 20.7878C0.990349 20.7666 1.00212 20.7466 1.01626 20.7278C1.05394 20.6948 1.09751 20.6783 1.14697 20.6783C1.19643 20.6783 1.24 20.6948 1.27768 20.7278L4.40067 23.8578L7.53072 20.7278C7.56841 20.6948 7.61198 20.6783 7.66144 20.6783C7.7109 20.6783 7.75211 20.6948 7.78508 20.7278C7.82277 20.7655 7.84161 20.809 7.84161 20.8585C7.84161 20.908 7.82277 20.9515 7.78508 20.9892L4.53492 24.2394C4.49723 24.2771 4.45366 24.2959 4.4042 24.2959C4.35474 24.2959 4.31117 24.2771 4.27349 24.2394L1.01626 20.9892C1.00212 20.9704 0.990349 20.9492 0.980928 20.9256C0.971507 20.9021 0.966797 20.8785 0.966797 20.855Z" fill="white"/>
</g>
<defs>
<clipPath id="clip0_554_451">
<rect width="7.23516" height="43.4109" fill="white" transform="matrix(1 0 0 -1 0.966797 44.0127)"/>
</clipPath>
</defs>
</svg>
