<svg width="24" height="40" viewBox="0 0 24 40" fill="none" xmlns="http://www.w3.org/2000/svg">
<g clip-path="url(#clip0_554_470)">
<path d="M22.041 30.3781L15.2903 23.0057C16.0453 22.2211 16.6264 21.3218 17.0335 20.3077C17.4406 19.2936 17.6441 18.2314 17.6441 17.1211C17.6441 15.9812 17.4295 14.8931 17.0002 13.8568C16.5708 12.8205 15.9565 11.9027 15.1571 11.1032C14.3428 10.289 13.4176 9.66724 12.3813 9.23792C11.345 8.8086 10.2569 8.59394 9.11699 8.59394C7.97708 8.59394 6.88898 8.8086 5.85269 9.23792C4.81641 9.66724 3.89115 10.289 3.07693 11.1032C2.27751 11.9027 1.66314 12.8205 1.23382 13.8568C0.804503 14.8931 0.589844 15.9812 0.589844 17.1211C0.589844 18.261 0.804503 19.3491 1.23382 20.3854C1.66314 21.4217 2.27751 22.3469 3.07693 23.1612C3.89115 23.9606 4.81641 24.5749 5.85269 25.0043C6.88898 25.4336 7.97708 25.6482 9.11699 25.6482C10.0941 25.6482 11.0378 25.4891 11.9483 25.1708C12.8587 24.8525 13.6915 24.3899 14.4465 23.7829L21.1971 31.1554C21.2563 31.2146 21.323 31.259 21.397 31.2886C21.471 31.3182 21.545 31.333 21.619 31.333C21.6931 31.333 21.7634 31.3219 21.83 31.2997C21.8966 31.2775 21.9521 31.2368 21.9965 31.1776C22.115 31.0739 22.1779 30.9444 22.1853 30.789C22.1927 30.6335 22.1446 30.4966 22.041 30.3781ZM1.72236 17.1211C1.72236 16.0996 1.91851 15.141 2.31082 14.2454C2.70313 13.3498 3.23237 12.5688 3.89856 11.9027C4.56474 11.2365 5.34565 10.7072 6.2413 10.3149C7.13695 9.92261 8.09551 9.72646 9.11699 9.72646C10.1385 9.72646 11.097 9.92261 11.9927 10.3149C12.8883 10.7072 13.6692 11.2365 14.3354 11.9027C15.0016 12.5688 15.5309 13.3498 15.9232 14.2454C16.3155 15.141 16.5116 16.0996 16.5116 17.1211C16.5116 18.1426 16.3155 19.1011 15.9232 19.9968C15.5309 20.8924 15.0016 21.677 14.3354 22.3506C13.6692 23.0242 12.8883 23.5535 11.9927 23.9384C11.097 24.3233 10.1385 24.5157 9.11699 24.5157C8.09551 24.5157 7.13695 24.3233 6.2413 23.9384C5.34565 23.5535 4.56474 23.0242 3.89856 22.3506C3.23237 21.677 2.70313 20.8924 2.31082 19.9968C1.91851 19.1011 1.72236 18.1426 1.72236 17.1211Z" fill="#222222"/>
</g>
<defs>
<clipPath id="clip0_554_470">
<rect width="22.7391" height="39.7934" fill="white" transform="matrix(1 0 0 -1 0.589844 39.8711)"/>
</clipPath>
</defs>
</svg>
