<svg width="11" height="17" viewBox="0 0 11 17" fill="none" xmlns="http://www.w3.org/2000/svg">
<g clip-path="url(#clip0_554_496)">
<path d="M0.806641 6.48805C0.806641 6.45776 0.812697 6.429 0.824809 6.40174C0.836922 6.37449 0.852062 6.34875 0.870231 6.32453C0.918681 6.28213 0.974701 6.26094 1.03829 6.26094C1.10188 6.26094 1.1579 6.28213 1.20635 6.32453L5.22162 10.3489L9.24597 6.32453C9.29442 6.28213 9.35044 6.26094 9.41403 6.26094C9.47762 6.26094 9.53062 6.28213 9.57301 6.32453C9.62146 6.37298 9.64568 6.429 9.64568 6.49259C9.64568 6.55618 9.62146 6.6122 9.57301 6.66065L5.39422 10.8394C5.34577 10.8879 5.28975 10.9121 5.22616 10.9121C5.16257 10.9121 5.10655 10.8879 5.0581 10.8394L0.870231 6.66065C0.852062 6.63642 0.836922 6.60917 0.824809 6.57889C0.812697 6.54861 0.806641 6.51833 0.806641 6.48805Z" fill="#222222"/>
</g>
<defs>
<clipPath id="clip0_554_496">
<rect width="9.30234" height="16.2791" fill="white" transform="matrix(1 0 0 -1 0.806641 16.4941)"/>
</clipPath>
</defs>
</svg>
