<svg width="23" height="40" viewBox="0 0 23 40" fill="none" xmlns="http://www.w3.org/2000/svg">
<g clip-path="url(#clip0_554_483)">
<path d="M10.8273 30.2002C10.7829 30.2002 10.7385 30.1928 10.6941 30.178C10.6497 30.1632 10.6053 30.1484 10.5609 30.1336C10.5312 30.1188 10.3647 30.0188 10.0612 29.8338C9.75773 29.6487 9.36172 29.3934 8.87319 29.0677C8.38465 28.742 7.8332 28.3497 7.21883 27.8908C6.60447 27.4318 5.97899 26.9063 5.34242 26.3141C4.57261 25.6331 3.88792 24.941 3.28835 24.2379C2.68879 23.5347 2.16694 22.8352 1.72282 22.1394C1.16027 21.2511 0.73835 20.3629 0.457072 19.4746C0.175795 18.5864 0.0351562 17.7056 0.0351562 16.8321C0.0351562 16.0179 0.190599 15.2481 0.501485 14.5227C0.81237 13.7973 1.23799 13.1644 1.77834 12.6241C2.31869 12.0837 2.95156 11.6581 3.67696 11.3472C4.40236 11.0363 5.17957 10.8809 6.0086 10.8809C6.55635 10.8809 7.11891 10.9808 7.69627 11.1807C8.27362 11.3805 8.82138 11.6729 9.33952 12.0578C9.6356 12.2799 9.91318 12.5204 10.1722 12.7795C10.4313 13.0386 10.6497 13.3087 10.8273 13.59C11.0198 13.3087 11.2455 13.0386 11.5046 12.7795C11.7637 12.5204 12.0413 12.2799 12.3373 12.0578C12.8555 11.6729 13.3995 11.3805 13.9695 11.1807C14.5394 10.9808 15.1057 10.8809 15.6683 10.8809C16.4973 10.8809 17.2708 11.0363 17.9888 11.3472C18.7068 11.6581 19.336 12.0837 19.8763 12.6241C20.4167 13.1644 20.846 13.7973 21.1643 14.5227C21.4826 15.2481 21.6417 16.0179 21.6417 16.8321C21.6417 17.7056 21.5011 18.5864 21.2198 19.4746C20.9385 20.3629 20.5166 21.2511 19.954 22.1394C19.5099 22.8352 18.9844 23.5347 18.3774 24.2379C17.7704 24.941 17.0895 25.6331 16.3344 26.3141C15.6831 26.9063 15.0502 27.4318 14.4358 27.8908C13.8215 28.3497 13.2737 28.742 12.7926 29.0677C12.3114 29.3934 11.9191 29.6487 11.6156 29.8338C11.3122 30.0188 11.1456 30.1188 11.116 30.1336C11.0716 30.1484 11.0272 30.1632 10.9828 30.178C10.9384 30.1928 10.8865 30.2002 10.8273 30.2002ZM6.0086 12.0134C5.34242 12.0134 4.71695 12.1392 4.13218 12.3909C3.54742 12.6426 3.03298 12.9868 2.58886 13.4235C2.14474 13.8602 1.79684 14.3709 1.54517 14.9557C1.2935 15.5405 1.16767 16.1659 1.16767 16.8321C1.16767 17.7056 1.31941 18.5494 1.62289 19.3636C1.92638 20.1778 2.31498 20.9513 2.78871 21.6841C3.26244 22.417 3.79169 23.1053 4.37645 23.7493C4.96121 24.3933 5.52747 24.967 6.07522 25.4703C7.0819 26.3733 8.03676 27.1283 8.93981 27.7353C9.84286 28.3423 10.472 28.7568 10.8273 28.9789C11.1974 28.7568 11.834 28.3423 12.7371 27.7353C13.6401 27.1283 14.5876 26.3733 15.5794 25.4703C16.142 24.967 16.7156 24.3933 17.3004 23.7493C17.8852 23.1053 18.4144 22.417 18.8881 21.6841C19.3619 20.9513 19.7505 20.1778 20.054 19.3636C20.3575 18.5494 20.5092 17.7056 20.5092 16.8321C20.5092 16.1659 20.3797 15.5405 20.1206 14.9557C19.8615 14.3709 19.5136 13.8602 19.0769 13.4235C18.6402 12.9868 18.1294 12.6426 17.5447 12.3909C16.9599 12.1392 16.3344 12.0134 15.6683 12.0134C14.706 12.0134 13.8103 12.3391 12.9813 12.9905C12.1523 13.6418 11.6193 14.3228 11.3825 15.0334C11.3381 15.1519 11.2677 15.2444 11.1715 15.311C11.0753 15.3776 10.9606 15.4109 10.8273 15.4109C10.7089 15.4109 10.6016 15.3776 10.5053 15.311C10.4091 15.2444 10.3388 15.1519 10.2944 15.0334C10.0575 14.3228 9.52457 13.6418 8.69554 12.9905C7.86651 12.3391 6.97087 12.0134 6.0086 12.0134Z" fill="#222222"/>
</g>
<defs>
<clipPath id="clip0_554_483">
<rect width="22.7391" height="39.7934" fill="white" transform="matrix(1 0 0 -1 0.0351562 39.8711)"/>
</clipPath>
</defs>
</svg>
