<svg width="24" height="40" viewBox="0 0 24 40" fill="none" xmlns="http://www.w3.org/2000/svg">
<path d="M11.6747 31.333C11.5859 31.333 11.5045 31.3145 11.4304 31.2775C11.3564 31.2405 11.2898 31.185 11.2306 31.1109C11.201 31.0813 10.8605 30.6113 10.2091 29.7009C9.55772 28.7904 8.83972 27.6024 8.0551 26.1368C7.58137 25.2781 7.16316 24.4269 6.80046 23.5831C6.43776 22.7392 6.12317 21.9176 5.8567 21.1182C5.53101 20.0967 5.28304 19.1085 5.11279 18.1537C4.94255 17.1988 4.85742 16.2847 4.85742 15.4112C4.85742 14.4786 5.03507 13.5977 5.39037 12.7687C5.74567 11.9397 6.2342 11.218 6.85597 10.6036C7.47774 9.98923 8.19944 9.50069 9.02107 9.13799C9.84269 8.7753 10.7272 8.59394 11.6747 8.59394C12.6222 8.59394 13.5067 8.7753 14.3283 9.13799C15.15 9.50069 15.8717 9.98923 16.4934 10.6036C17.1152 11.218 17.6037 11.9397 17.959 12.7687C18.3143 13.5977 18.492 14.4786 18.492 15.4112C18.492 16.2847 18.4069 17.1988 18.2366 18.1537C18.0664 19.1085 17.8184 20.0967 17.4927 21.1182C17.2262 21.9176 16.9116 22.7392 16.5489 23.5831C16.1862 24.4269 15.768 25.2781 15.2943 26.1368C14.5097 27.6024 13.7917 28.7904 13.1403 29.7009C12.4889 30.6113 12.1484 31.0813 12.1188 31.1109C12.0596 31.185 11.993 31.2405 11.919 31.2775C11.8449 31.3145 11.7635 31.333 11.6747 31.333ZM11.6747 9.72646C10.8901 9.72646 10.1536 9.8782 9.46519 10.1817C8.7768 10.4852 8.17354 10.8923 7.65539 11.403C7.13725 11.9138 6.73014 12.5133 6.43406 13.2017C6.13797 13.8901 5.98993 14.6266 5.98993 15.4112C5.98993 16.3439 6.08246 17.2765 6.26751 18.2092C6.45256 19.1418 6.69313 20.0449 6.98921 20.9183C7.28529 21.7918 7.61468 22.6282 7.97738 23.4276C8.34008 24.2271 8.69908 24.9525 9.05438 25.6038C9.55772 26.5513 10.05 27.3914 10.5311 28.1242C11.0122 28.857 11.3934 29.4233 11.6747 29.823C11.956 29.4233 12.3372 28.857 12.8183 28.1242C13.2994 27.3914 13.7991 26.5439 14.3172 25.5816C14.6577 24.9302 15.0093 24.2085 15.372 23.4165C15.7347 22.6245 16.0641 21.7881 16.3602 20.9072C16.6563 20.0264 16.8968 19.1233 17.0819 18.1981C17.2669 17.2728 17.3595 16.3439 17.3595 15.4112C17.3595 14.6266 17.2114 13.8901 16.9153 13.2017C16.6193 12.5133 16.2121 11.9138 15.694 11.403C15.1759 10.8923 14.5726 10.4852 13.8842 10.1817C13.1958 9.8782 12.4593 9.72646 11.6747 9.72646ZM11.6747 18.831C10.7272 18.831 9.92042 18.4979 9.25423 17.8317C8.58805 17.1655 8.25496 16.3587 8.25496 15.4112C8.25496 14.4786 8.58805 13.6791 9.25423 13.013C9.92042 12.3468 10.7272 12.0137 11.6747 12.0137C12.6222 12.0137 13.429 12.3468 14.0952 13.013C14.7613 13.6791 15.0944 14.4786 15.0944 15.4112C15.0944 16.3587 14.7613 17.1655 14.0952 17.8317C13.429 18.4979 12.6222 18.831 11.6747 18.831ZM11.6747 13.1462C11.0529 13.1462 10.52 13.3683 10.0759 13.8124C9.63174 14.2565 9.40968 14.7895 9.40968 15.4112C9.40968 16.0478 9.63174 16.5881 10.0759 17.0323C10.52 17.4764 11.0529 17.6985 11.6747 17.6985C12.2965 17.6985 12.8294 17.4764 13.2735 17.0323C13.7177 16.5881 13.9397 16.0478 13.9397 15.4112C13.9397 14.7895 13.7177 14.2565 13.2735 13.8124C12.8294 13.3683 12.2965 13.1462 11.6747 13.1462Z" fill="#222222"/>
</svg>
