<svg width="17" height="18" viewBox="0 0 17 18" fill="none" xmlns="http://www.w3.org/2000/svg">
<g clip-path="url(#clip0_554_547)">
<path d="M0.341797 5.63011C0.341797 5.57628 0.352563 5.52514 0.374097 5.47669C0.39563 5.42824 0.422546 5.38248 0.454846 5.33942C0.540979 5.26405 0.64057 5.22637 0.753619 5.22637C0.866669 5.22637 0.96626 5.26405 1.05239 5.33942L8.19065 12.4938L15.3451 5.33942C15.4312 5.26405 15.5308 5.22637 15.6438 5.22637C15.7569 5.22637 15.8511 5.26405 15.9265 5.33942C16.0126 5.42555 16.0557 5.52514 16.0557 5.63819C16.0557 5.75124 16.0126 5.85083 15.9265 5.93696L8.4975 13.3659C8.41136 13.4521 8.31177 13.4951 8.19872 13.4951C8.08568 13.4951 7.98608 13.4521 7.89995 13.3659L0.454846 5.93696C0.422546 5.8939 0.39563 5.84545 0.374097 5.79161C0.352563 5.73778 0.341797 5.68395 0.341797 5.63011Z" fill="#777777"/>
</g>
<defs>
<clipPath id="clip0_554_547">
<rect width="16.5375" height="16.5375" fill="white" transform="matrix(1 0 0 -1 0.341797 17.2178)"/>
</clipPath>
</defs>
</svg>
