<svg width="100" height="209" viewBox="0 0 100 209" fill="none" xmlns="http://www.w3.org/2000/svg">
<g clip-path="url(#clip0_554_568)">
<path d="M40.4138 208.629C37.6361 208.629 35.2782 205.475 33.3402 199.166C31.4022 192.858 30.4332 185.287 30.4332 176.455C30.4332 167.413 31.4022 159.738 33.3402 153.429C35.2782 147.12 37.6361 143.966 40.4138 143.966C43.127 143.966 45.4526 147.12 47.3906 153.429C49.3286 159.738 50.2976 167.413 50.2976 176.455C50.2976 185.287 49.3286 192.858 47.3906 199.166C45.4526 205.475 43.127 208.629 40.4138 208.629ZM40.4138 160.368C38.9926 160.368 37.7976 161.946 36.8286 165.1C35.8596 168.254 35.3751 172.039 35.3751 176.455C35.3751 180.871 35.8596 184.656 36.8286 187.811C37.7976 190.965 38.9926 192.542 40.4138 192.542C41.7704 192.542 42.9332 190.965 43.9022 187.811C44.8712 184.656 45.3557 180.871 45.3557 176.455C45.3557 172.039 44.8712 168.254 43.9022 165.1C42.9332 161.946 41.7704 160.368 40.4138 160.368ZM75.1038 208.629C72.3906 208.629 70.0651 205.475 68.1271 199.166C66.1891 192.858 65.2201 185.287 65.2201 176.455C65.2201 167.413 66.1891 159.738 68.1271 153.429C70.0651 147.12 72.3906 143.966 75.1038 143.966C77.817 143.966 80.1426 147.12 82.0806 153.429C84.0186 159.738 84.9876 167.413 84.9876 176.455C84.9876 185.287 84.0186 192.858 82.0806 199.166C80.1426 205.475 77.817 208.629 75.1038 208.629ZM75.1038 160.368C73.7472 160.368 72.5844 161.946 71.6155 165.1C70.6465 168.254 70.162 172.039 70.162 176.455C70.162 180.871 70.6465 184.656 71.6155 187.811C72.5844 190.965 73.7472 192.542 75.1038 192.542C76.4604 192.542 77.6232 190.965 78.5922 187.811C79.5612 184.656 80.0457 180.871 80.0457 176.455C80.0457 172.039 79.5612 168.254 78.5922 165.1C77.6232 161.946 76.4604 160.368 75.1038 160.368ZM87.7008 -42.1362C87.0548 -44.4493 86.2957 -46.2893 85.4236 -47.6562C84.5515 -49.023 83.5987 -49.7065 82.5651 -49.7065H21.8092L21.3247 -59.4847C21.0017 -65.7933 20.0488 -71.103 18.4661 -75.4138C16.8834 -79.7247 15.0908 -81.8801 13.0882 -81.8801H8.14634C7.43574 -81.8801 6.8382 -81.0915 6.3537 -79.5144C5.8692 -77.9372 5.62695 -76.0972 5.62695 -73.9944C5.62695 -71.6812 5.8692 -69.7361 6.3537 -68.159C6.8382 -66.5818 7.43574 -65.7933 8.14634 -65.7933H13.0882C13.8634 -65.7933 14.574 -64.8995 15.22 -63.1121C15.866 -61.3247 16.2536 -59.1693 16.3828 -56.6458L24.7161 105.169C25.0391 111.687 25.992 117.102 27.5747 121.413C29.1574 125.724 30.95 127.879 32.9526 127.879H82.5651C83.2111 127.879 83.7763 127.091 84.2608 125.514C84.7453 123.937 84.9876 122.097 84.9876 119.994C84.9876 117.681 84.7453 115.735 84.2608 114.158C83.7763 112.581 83.2111 111.793 82.5651 111.793H32.9526C32.1774 111.793 31.4506 110.899 30.7724 109.111C30.0941 107.324 29.6903 105.169 29.5611 102.645L28.3983 78.6727L77.817 64.7938C79.755 64.163 81.4992 61.5344 83.0496 56.9081C84.6 52.2819 85.5044 46.9196 85.7628 40.8213L89.1542 -24.4722C89.2834 -27.6265 89.235 -30.7808 89.0089 -33.9351C88.7828 -37.0893 88.3467 -39.823 87.7008 -42.1362ZM84.2124 -26.9957L80.9178 37.9825C80.7886 40.5059 80.3687 42.8716 79.6581 45.0796C78.9475 47.2876 78.2046 48.4967 77.4294 48.707L27.5262 62.5858L22.5844 -33.6196H82.5651C82.8235 -33.6196 83.0819 -33.4619 83.3403 -33.1465C83.5987 -32.8311 83.7925 -32.3579 83.9217 -31.7271C84.0509 -31.0962 84.1478 -30.4128 84.2124 -29.6768C84.277 -28.9408 84.277 -28.0471 84.2124 -26.9957Z" fill="#777777"/>
</g>
<defs>
<clipPath id="clip0_554_568">
<rect width="99.225" height="322.998" fill="white" transform="matrix(1 0 0 -1 0.685547 208.786)"/>
</clipPath>
</defs>
</svg>
