<svg width="16" height="16" viewBox="0 0 16 16" fill="none" xmlns="http://www.w3.org/2000/svg">
<g clip-path="url(#clip0_554_197)">
<path d="M4.62172 15.6963C4.55106 15.6963 4.48293 15.6837 4.41732 15.6584C4.35171 15.6332 4.29367 15.5954 4.2432 15.5449C4.14227 15.4439 4.0918 15.3228 4.0918 15.1815C4.0918 15.0402 4.14227 14.9191 4.2432 14.8181L11.1624 7.89891L4.34919 1.10081C4.24825 0.999878 4.19778 0.87623 4.19778 0.729872C4.19778 0.583513 4.24825 0.459866 4.34919 0.358929C4.45012 0.257992 4.57377 0.207523 4.72013 0.207523C4.86649 0.207523 4.99014 0.257992 5.09107 0.358929L12.2525 7.53554C12.3535 7.63648 12.4039 7.7576 12.4039 7.89891C12.4039 8.04023 12.3535 8.16135 12.2525 8.26229L4.98509 15.5449C4.93462 15.5954 4.87658 15.6332 4.81097 15.6584C4.74536 15.6837 4.68228 15.6963 4.62172 15.6963Z" fill="#222222"/>
</g>
<defs>
<clipPath id="clip0_554_197">
<rect width="15.5039" height="15.5039" fill="white" transform="matrix(1 0 0 -1 0.503906 15.7119)"/>
</clipPath>
</defs>
</svg>
