<svg width="10" height="17" viewBox="0 0 10 17" fill="none" xmlns="http://www.w3.org/2000/svg">
<g clip-path="url(#clip0_554_508)">
<path d="M0.601562 6.48805C0.601562 6.45776 0.607619 6.429 0.619731 6.40174C0.631844 6.37449 0.646984 6.34875 0.665153 6.32453C0.713602 6.28213 0.769622 6.26094 0.833213 6.26094C0.896803 6.26094 0.952823 6.28213 1.00127 6.32453L5.01654 10.3489L9.0409 6.32453C9.08935 6.28213 9.14537 6.26094 9.20896 6.26094C9.27255 6.26094 9.32554 6.28213 9.36793 6.32453C9.41638 6.37298 9.44061 6.429 9.44061 6.49259C9.44061 6.55618 9.41638 6.6122 9.36793 6.66065L5.18914 10.8394C5.14069 10.8879 5.08467 10.9121 5.02108 10.9121C4.95749 10.9121 4.90147 10.8879 4.85302 10.8394L0.665153 6.66065C0.646984 6.63642 0.631844 6.60917 0.619731 6.57889C0.607619 6.54861 0.601562 6.51833 0.601562 6.48805Z" fill="#222222"/>
</g>
<defs>
<clipPath id="clip0_554_508">
<rect width="9.30234" height="16.2791" fill="white" transform="matrix(1 0 0 -1 0.601562 16.4941)"/>
</clipPath>
</defs>
</svg>
