<svg width="24" height="40" viewBox="0 0 24 40" fill="none" xmlns="http://www.w3.org/2000/svg">
<g clip-path="url(#clip0_554_479)">
<path d="M11.0695 21.096C10.2109 21.096 9.40406 20.9331 8.64905 20.6075C7.89404 20.2818 7.23156 19.8376 6.6616 19.2751C6.09164 18.7125 5.64382 18.05 5.31813 17.2876C4.99244 16.5252 4.8296 15.7147 4.8296 14.8561C4.8296 13.9974 4.99244 13.1869 5.31813 12.4245C5.64382 11.6621 6.09164 10.9996 6.6616 10.4371C7.23156 9.8745 7.89404 9.42667 8.64905 9.09358C9.40406 8.76049 10.2109 8.59394 11.0695 8.59394C11.943 8.59394 12.7572 8.76049 13.5122 9.09358C14.2672 9.42667 14.9297 9.8745 15.4996 10.4371C16.0696 10.9996 16.5174 11.6621 16.8431 12.4245C17.1688 13.1869 17.3316 13.9974 17.3316 14.8561C17.3316 15.7147 17.1688 16.5252 16.8431 17.2876C16.5174 18.05 16.0696 18.7125 15.4996 19.2751C14.9297 19.8376 14.2672 20.2818 13.5122 20.6075C12.7572 20.9331 11.943 21.096 11.0695 21.096ZM11.0695 9.72646C10.3737 9.72646 9.71494 9.86339 9.09317 10.1373C8.4714 10.4111 7.92735 10.7775 7.46102 11.2365C6.99469 11.6954 6.62829 12.2357 6.36182 12.8575C6.09535 13.4793 5.96211 14.1455 5.96211 14.8561C5.96211 15.5519 6.09535 16.2106 6.36182 16.8324C6.62829 17.4542 6.99469 17.9982 7.46102 18.4646C7.92735 18.9309 8.4714 19.2973 9.09317 19.5638C9.71494 19.8302 10.3737 19.9635 11.0695 19.9635C11.7801 19.9635 12.4463 19.8302 13.0681 19.5638C13.6898 19.2973 14.2339 18.9309 14.7002 18.4646C15.1665 17.9982 15.5329 17.4542 15.7994 16.8324C16.0659 16.2106 16.1991 15.5519 16.1991 14.8561C16.1991 14.1455 16.0659 13.4793 15.7994 12.8575C15.5329 12.2357 15.1665 11.6954 14.7002 11.2365C14.2339 10.7775 13.6898 10.4111 13.0681 10.1373C12.4463 9.86339 11.7801 9.72646 11.0695 9.72646ZM20.174 31.333H1.98721C1.51348 31.333 1.11007 31.1665 0.776981 30.8334C0.44389 30.5003 0.277344 30.0969 0.277344 29.6231C0.277344 29.5935 0.33656 29.1901 0.454993 28.4129C0.573425 27.6357 0.980537 26.7882 1.67633 25.8703C2.07604 25.3374 2.54977 24.8599 3.09752 24.438C3.64527 24.0161 4.25964 23.6571 4.94063 23.361C5.76966 22.9909 6.69861 22.7133 7.7275 22.5283C8.75638 22.3432 9.87039 22.2507 11.0695 22.2507C12.2835 22.2507 13.4049 22.3432 14.4337 22.5283C15.4626 22.7133 16.3916 22.9909 17.2206 23.361C17.9016 23.6571 18.516 24.0161 19.0637 24.438C19.6115 24.8599 20.0852 25.3374 20.4849 25.8703C21.1807 26.7882 21.5878 27.6357 21.7062 28.4129C21.8247 29.1901 21.8839 29.5935 21.8839 29.6231C21.8839 30.0969 21.7173 30.5003 21.3843 30.8334C21.0512 31.1665 20.6478 31.333 20.174 31.333ZM11.0695 23.3832C10.0776 23.3832 9.15609 23.4498 8.30485 23.5831C7.45362 23.7163 6.669 23.9162 5.95101 24.1826C5.23301 24.4491 4.59643 24.7748 4.04128 25.1597C3.48613 25.5446 3.0087 25.9961 2.60899 26.5143C2.03163 27.2841 1.68743 27.9947 1.5764 28.6461C1.46537 29.2974 1.40986 29.6305 1.40986 29.6453C1.40986 29.7934 1.46537 29.9229 1.5764 30.0339C1.68743 30.145 1.82437 30.2005 1.98721 30.2005H20.174C20.3369 30.2005 20.4738 30.145 20.5848 30.0339C20.6959 29.9229 20.7514 29.786 20.7514 29.6231C20.7514 29.6231 20.6959 29.2974 20.5848 28.6461C20.4738 27.9947 20.1222 27.2841 19.53 26.5143C19.1451 25.9961 18.6714 25.5446 18.1089 25.1597C17.5463 24.7748 16.9097 24.4491 16.1991 24.1826C15.4885 23.9162 14.7039 23.7163 13.8453 23.5831C12.9866 23.4498 12.0614 23.3832 11.0695 23.3832Z" fill="#222222"/>
</g>
<defs>
<clipPath id="clip0_554_479">
<rect width="22.7391" height="39.7934" fill="white" transform="matrix(1 0 0 -1 0.277344 39.8711)"/>
</clipPath>
</defs>
</svg>
