<svg width="16" height="17" viewBox="0 0 16 17" fill="none" xmlns="http://www.w3.org/2000/svg">
<g clip-path="url(#clip0_554_145)">
<path d="M4.62172 16.1777C4.55106 16.1777 4.48293 16.1651 4.41732 16.1399C4.35171 16.1146 4.29367 16.0768 4.2432 16.0263C4.14227 15.9254 4.0918 15.8043 4.0918 15.663C4.0918 15.5216 4.14227 15.4005 4.2432 15.2996L11.1624 8.38036L4.34919 1.58226C4.24825 1.48132 4.19778 1.35768 4.19778 1.21132C4.19778 1.06496 4.24825 0.941311 4.34919 0.840374C4.45012 0.739437 4.57377 0.688969 4.72013 0.688969C4.86649 0.688969 4.99014 0.739437 5.09107 0.840374L12.2525 8.01699C12.3535 8.11792 12.4039 8.23905 12.4039 8.38036C12.4039 8.52167 12.3535 8.6428 12.2525 8.74373L4.98509 16.0263C4.93462 16.0768 4.87658 16.1146 4.81097 16.1399C4.74536 16.1651 4.68228 16.1777 4.62172 16.1777Z" fill="#222222"/>
</g>
<defs>
<clipPath id="clip0_554_145">
<rect width="15.5039" height="15.5039" fill="white" transform="matrix(1 0 0 -1 0.503906 16.1934)"/>
</clipPath>
</defs>
</svg>
