<svg width="16" height="16" viewBox="0 0 16 16" fill="none" xmlns="http://www.w3.org/2000/svg">
<g clip-path="url(#clip0_554_246)">
<path d="M4.62367 15.667C4.55301 15.667 4.48488 15.6544 4.41927 15.6291C4.35366 15.6039 4.29562 15.5661 4.24516 15.5156C4.14422 15.4146 4.09375 15.2935 4.09375 15.1522C4.09375 15.0109 4.14422 14.8898 4.24516 14.7888L11.1644 7.86962L4.35114 1.07152C4.2502 0.970581 4.19973 0.846933 4.19973 0.700575C4.19973 0.554216 4.2502 0.430569 4.35114 0.329632C4.45208 0.228695 4.57572 0.178226 4.72208 0.178226C4.86844 0.178226 4.99209 0.228695 5.09303 0.329632L12.2545 7.50624C12.3554 7.60718 12.4059 7.72831 12.4059 7.86962C12.4059 8.01093 12.3554 8.13205 12.2545 8.23299L4.98704 15.5156C4.93657 15.5661 4.87853 15.6039 4.81293 15.6291C4.74732 15.6544 4.68423 15.667 4.62367 15.667Z" fill="#222222"/>
</g>
<defs>
<clipPath id="clip0_554_246">
<rect width="15.5039" height="15.5039" fill="white" transform="matrix(1 0 0 -1 0.505859 15.6816)"/>
</clipPath>
</defs>
</svg>
