<svg width="10" height="17" viewBox="0 0 10 17" fill="none" xmlns="http://www.w3.org/2000/svg">
<g clip-path="url(#clip0_554_500)">
<path d="M0.242188 6.48805C0.242188 6.45776 0.248244 6.429 0.260356 6.40174C0.272469 6.37449 0.287609 6.34875 0.305778 6.32453C0.354227 6.28213 0.410247 6.26094 0.473838 6.26094C0.537428 6.26094 0.593448 6.28213 0.641898 6.32453L4.65717 10.3489L8.68152 6.32453C8.72997 6.28213 8.78599 6.26094 8.84958 6.26094C8.91317 6.26094 8.96616 6.28213 9.00856 6.32453C9.05701 6.37298 9.08123 6.429 9.08123 6.49259C9.08123 6.55618 9.05701 6.6122 9.00856 6.66065L4.82977 10.8394C4.78132 10.8879 4.7253 10.9121 4.66171 10.9121C4.59812 10.9121 4.5421 10.8879 4.49365 10.8394L0.305778 6.66065C0.287609 6.63642 0.272469 6.60917 0.260356 6.57889C0.248244 6.54861 0.242188 6.51833 0.242188 6.48805Z" fill="#222222"/>
</g>
<defs>
<clipPath id="clip0_554_500">
<rect width="9.30234" height="16.2791" fill="white" transform="matrix(1 0 0 -1 0.242188 16.4941)"/>
</clipPath>
</defs>
</svg>
