<svg width="8" height="13" viewBox="0 0 8 13" fill="none" xmlns="http://www.w3.org/2000/svg">
<g clip-path="url(#clip0_554_561)">
<path d="M0.53125 4.96839C0.53125 4.94486 0.53596 4.9225 0.545381 4.90132C0.554802 4.88015 0.566578 4.86014 0.580709 4.84132C0.618392 4.80838 0.661963 4.7919 0.711422 4.7919C0.760881 4.7919 0.804453 4.80838 0.842136 4.84132L3.96512 7.96858L7.09518 4.84132C7.13286 4.80838 7.17643 4.7919 7.22589 4.7919C7.27535 4.7919 7.31656 4.80838 7.34954 4.84132C7.38722 4.87897 7.40606 4.9225 7.40606 4.97192C7.40606 5.02133 7.38722 5.06486 7.34954 5.10251L4.09937 8.34978C4.06169 8.38743 4.01812 8.40625 3.96866 8.40625C3.9192 8.40625 3.87563 8.38743 3.83794 8.34978L0.580709 5.10251C0.566578 5.08369 0.554802 5.06251 0.545381 5.03898C0.53596 5.01545 0.53125 4.99192 0.53125 4.96839Z" fill="#222222"/>
</g>
<defs>
<clipPath id="clip0_554_561">
<rect width="7.23516" height="11.5556" fill="white" transform="matrix(1 0 0 -1 0.53125 12.1963)"/>
</clipPath>
</defs>
</svg>
