<svg width="177" height="23" viewBox="0 0 177 23" fill="none" xmlns="http://www.w3.org/2000/svg">
<g clip-path="url(#clip0_554_473)">
<g clip-path="url(#clip1_554_473)">
<g clip-path="url(#clip2_554_473)">
<path d="M16.4531 21.7799H18.9212L9.9218 0.741211L0.681641 21.7799H3.1497L5.55756 16.1214H14.1055L16.4531 21.7799ZM6.43041 14.0145L9.86161 5.97831L13.2326 14.0145H6.43041ZM21.7525 1.70436V21.7799H29.5179V19.673H23.9798V1.70436H21.7525ZM34.767 1.70436H32.5397V14.6165C32.5397 16.302 32.7203 17.9273 33.8038 19.4322C35.0078 21.0876 37.1147 22.1411 39.673 22.1411C42.2314 22.1411 44.3382 21.0876 45.5422 19.4322C46.6257 17.9273 46.8063 16.302 46.8063 14.6165V1.70436H44.579V14.0145C44.579 15.7 44.579 17.536 42.9838 18.8905C42.1712 19.5827 40.7866 20.0342 39.673 20.0342C38.5594 20.0342 37.1749 19.5827 36.3622 18.8905C34.767 17.536 34.767 15.7 34.767 14.0145V1.70436ZM54.225 1.70436H51.9977V21.7799H54.225V13.1417L54.7969 12.5698L63.0137 21.7799H66.0837L56.3921 11.0649L65.7827 1.70436H62.7729L54.225 10.3125V1.70436ZM82.5282 21.7799H84.996L75.9969 0.741211L66.7567 21.7799H69.2248L71.6327 16.1214H80.1806L82.5282 21.7799ZM72.5055 14.0145L75.9367 5.97831L79.3077 14.0145H72.5055ZM98.2493 4.50349C97.7978 3.63064 97.1056 2.81799 96.2929 2.27622C95.2997 1.61406 94.3064 1.37328 93.0724 1.37328C89.8218 1.37328 87.444 3.45006 87.444 6.55017C87.444 8.05509 87.9557 8.98813 88.8285 9.83088C89.7315 10.7037 90.7247 11.1251 91.5073 11.4863L93.3132 12.329C94.3666 12.8106 95.1492 13.1718 95.721 13.7136C96.4434 14.3757 96.7143 15.1583 96.7143 16.0612C96.7143 18.0778 95.4201 20.0342 92.6811 20.0342C91.6578 20.0342 90.6645 19.7934 89.7917 18.9206C89.2198 18.3186 88.7383 17.4156 88.5878 16.3622L86.4207 16.9642C86.6916 18.1681 87.2935 19.5526 88.2868 20.5158C89.6713 21.8702 91.3267 22.1411 92.651 22.1411C96.2628 22.1411 99.0018 19.673 99.0018 15.9709C99.0018 14.5262 98.5804 13.3524 97.557 12.329C96.7143 11.4863 95.6307 10.9445 94.4569 10.4328L92.5306 9.5901C91.7782 9.25902 91.0257 8.92794 90.4238 8.32597C89.882 7.8143 89.6713 7.36283 89.6713 6.58027C89.6713 4.71418 91.0558 3.48015 93.0423 3.48015C94.186 3.48015 94.9084 3.87143 95.2997 4.17241C95.7511 4.53359 96.2026 5.13556 96.4735 5.67733L98.2493 4.50349ZM123.922 13.0815C123.35 13.864 122.718 14.5864 121.635 15.7301L117.451 10.3426C118.745 9.25902 118.565 9.4998 119.076 9.04833C120.672 7.66381 120.943 6.33949 120.943 5.40644C120.943 3.38986 119.498 1.37328 116.699 1.37328C113.809 1.37328 112.334 3.51025 112.334 5.61713C112.334 6.97155 112.967 8.17548 114.321 9.92118C113.9 10.1921 112.003 11.3659 110.95 12.4193C110.288 13.0815 109.144 14.4058 109.144 16.5729C109.144 19.7633 111.672 22.1411 114.953 22.1411C117.24 22.1411 119.678 20.7264 121.424 18.9808L123.591 21.7799H126.36L122.989 17.4156C124.223 16.1515 125.006 15.1884 125.548 14.4359L123.922 13.0815ZM120.07 17.3253C119.317 18.0477 117.06 20.0944 114.923 20.0944C112.846 20.0944 111.371 18.5293 111.371 16.5428C111.371 14.9777 112.214 14.165 112.786 13.6534C113.358 13.1417 114.14 12.4795 115.615 11.5766L120.07 17.3253ZM115.254 7.48322C114.863 6.94145 114.441 6.36959 114.441 5.49674C114.441 4.23261 115.435 3.29956 116.669 3.29956C117.722 3.29956 118.836 3.96173 118.836 5.37634C118.836 6.0686 118.625 6.79096 117.481 7.69391L116.157 8.71725L115.254 7.48322ZM151.617 3.35976C149.209 1.52377 146.891 1.37328 145.687 1.37328C139.668 1.37328 135.183 5.82782 135.183 11.8174C135.183 17.6263 139.608 22.1411 145.567 22.1411C147.072 22.1411 149.39 21.7799 151.617 20.1847V17.4156C151.256 17.7768 150.443 18.5293 149.299 19.1011C148.246 19.6429 146.922 20.0342 145.567 20.0342C141.895 20.0342 137.471 17.2952 137.471 11.8475C137.471 7.21234 140.902 3.48015 145.537 3.48015C146.711 3.48015 147.945 3.78114 148.998 4.26271C150.022 4.74428 150.985 5.49674 151.617 6.1288V3.35976ZM165.086 22.1411C170.895 22.1411 175.53 17.7166 175.53 11.7572C175.53 5.76762 170.865 1.37328 165.086 1.37328C159.307 1.37328 154.642 5.76762 154.642 11.7572C154.642 17.7166 159.277 22.1411 165.086 22.1411ZM165.086 3.48015C169.601 3.48015 173.242 7.15214 173.242 11.7572C173.242 16.3622 169.601 20.0342 165.086 20.0342C160.571 20.0342 156.929 16.3622 156.929 11.7572C156.929 7.15214 160.571 3.48015 165.086 3.48015Z" fill="#222222"/>
</g>
</g>
</g>
<defs>
<clipPath id="clip0_554_473">
<rect width="175.711" height="22.5737" fill="white" transform="translate(0.373047 0.0419922)"/>
</clipPath>
<clipPath id="clip1_554_473">
<rect width="175.711" height="22.5737" fill="white" transform="translate(0.373047 0.0419922)"/>
</clipPath>
<clipPath id="clip2_554_473">
<rect width="175.573" height="22.5737" fill="white" transform="translate(0.441406 0.0419922)"/>
</clipPath>
</defs>
</svg>
